<?xml version="1.0" standalone="no"?>
<!DOCTYPE svg PUBLIC "-//W3C//DTD SVG 20010904//EN"
 "http://www.w3.org/TR/2001/REC-SVG-20010904/DTD/svg10.dtd">
<svg version="1.0" xmlns="http://www.w3.org/2000/svg"
 width="2048.000000pt" height="2048.000000pt" viewBox="0 0 2048.000000 2048.000000"
 preserveAspectRatio="xMidYMid meet">

<g transform="translate(0.000000,2048.000000) scale(0.100000,-0.100000)"
fill="#000000" stroke="none">
<path d="M8602 20355 c3 -5 60 -109 126 -230 450 -822 905 -1754 1259 -2579
l64 -150 -12 -75 c-20 -122 -16 -339 8 -452 48 -223 165 -447 322 -613 73 -77
303 -268 312 -258 10 11 76 238 88 302 29 157 21 309 -26 470 -51 176 -183
386 -326 515 -56 51 -188 144 -264 186 -22 12 -40 41 -78 125 -255 574 -580
1226 -885 1774 -181 326 -555 957 -583 985 -7 7 -8 7 -5 0z"/>
<path d="M10461 19717 c-1 -10 107 -399 190 -687 260 -896 399 -1419 479
-1805 38 -186 100 -545 100 -584 0 -16 -20 -62 -47 -106 -131 -219 -193 -452
-193 -732 0 -381 101 -714 323 -1066 l55 -88 60 153 c117 295 146 448 146 753
0 369 -46 592 -203 989 -38 96 -54 154 -76 281 -94 554 -235 1060 -665 2385
-170 527 -168 519 -169 507z"/>
<path d="M8166 18585 c227 -309 547 -789 879 -1315 248 -393 535 -829 684
-1038 88 -123 110 -163 167 -300 116 -279 229 -474 395 -682 205 -257 391
-413 713 -594 65 -36 120 -65 123 -63 7 7 -36 273 -57 358 -110 429 -395 821
-745 1022 -99 57 -203 99 -318 128 l-87 22 -128 176 c-178 244 -344 484 -582
841 -389 583 -731 1064 -963 1355 -86 107 -130 156 -81 90z"/>
<path d="M11411 18384 c0 -11 3 -14 6 -6 3 7 2 16 -1 19 -3 4 -6 -2 -5 -13z"/>
<path d="M11421 18355 c-1 -6 60 -301 135 -655 323 -1535 387 -1897 439 -2500
l16 -180 -64 -89 c-168 -234 -254 -482 -277 -797 -26 -372 46 -723 221 -1074
43 -85 84 -163 91 -173 13 -17 21 -4 85 130 169 354 222 569 230 935 6 241 -5
386 -42 573 -23 115 -40 177 -118 440 -26 89 -38 155 -47 255 -36 417 -128
942 -271 1550 -80 341 -397 1600 -398 1585z"/>
<path d="M2611 17690 c117 -135 469 -530 714 -800 956 -1055 1400 -1587 1759
-2113 l88 -128 -10 -147 c-19 -296 20 -532 133 -798 165 -387 458 -746 820
-1006 84 -60 277 -179 282 -174 8 7 -16 309 -33 426 -32 220 -115 484 -214
680 -189 377 -408 661 -748 970 -81 74 -164 157 -183 185 -237 341 -597 784
-986 1213 -294 322 -1379 1463 -1621 1702 l-66 65 65 -75z"/>
<path d="M95 17503 c6 -6 147 -109 315 -228 977 -698 2178 -1646 2904 -2291
l89 -79 41 -120 c51 -145 107 -263 176 -370 183 -280 486 -518 807 -635 129
-47 463 -131 463 -117 0 37 -52 333 -69 393 -59 207 -161 376 -330 545 -259
258 -582 404 -962 435 l-86 7 -124 104 c-933 788 -1904 1507 -2949 2184 -270
175 -291 188 -275 172z"/>
<path d="M8543 17133 c189 -262 487 -713 739 -1118 86 -137 242 -389 348 -560
222 -356 415 -652 563 -863 92 -131 110 -165 167 -307 73 -183 179 -397 265
-535 196 -314 463 -590 750 -775 131 -84 296 -177 303 -171 9 9 -16 227 -39
340 -106 520 -463 1009 -889 1216 -74 35 -252 97 -330 114 -41 9 -367 474
-856 1221 -364 557 -528 797 -778 1135 -118 160 -296 390 -302 390 -2 0 24
-39 59 -87z"/>
<path d="M12262 17110 c0 -14 2 -19 5 -12 2 6 2 18 0 25 -3 6 -5 1 -5 -13z"/>
<path d="M12271 17072 c0 -8 60 -424 134 -925 218 -1480 259 -1851 272 -2477
l6 -295 -63 -75 c-178 -211 -291 -445 -345 -714 -93 -466 -42 -922 152 -1365
30 -69 59 -137 65 -151 9 -23 14 -17 74 85 250 420 352 755 370 1210 11 272
-17 512 -100 865 -42 177 -44 194 -50 390 -22 681 -94 1205 -376 2730 -136
740 -137 743 -139 722z"/>
<path d="M4330 16806 c0 -2 8 -10 18 -17 15 -13 16 -12 3 4 -13 16 -21 21 -21
13z"/>
<path d="M4857 16133 c273 -351 576 -739 673 -863 565 -722 957 -1277 1270
-1799 l132 -220 -16 -78 c-55 -278 -49 -536 19 -803 71 -278 229 -599 425
-859 160 -212 337 -383 590 -569 63 -47 121 -90 129 -96 19 -15 9 497 -13 639
-56 372 -185 715 -401 1070 -131 215 -250 367 -490 625 -134 144 -167 187
-253 325 -331 537 -738 1090 -1316 1790 -254 307 -1237 1475 -1241 1475 -3 0
219 -287 492 -637z"/>
<path d="M8851 15743 c263 -376 553 -830 966 -1516 395 -656 474 -784 713
-1147 185 -279 190 -288 250 -448 136 -362 267 -605 471 -873 149 -196 359
-398 558 -537 140 -98 365 -232 370 -221 7 23 -21 282 -45 399 -76 381 -269
743 -539 1014 -195 197 -408 323 -668 395 l-102 28 -68 94 c-134 186 -501 744
-812 1234 -342 538 -430 672 -624 950 -198 284 -516 715 -528 715 -2 0 24 -39
58 -87z"/>
<path d="M13051 15778 c-1 -9 37 -445 84 -970 118 -1336 128 -1464 146 -1978
11 -302 8 -642 -8 -985 l-6 -140 -67 -70 c-91 -96 -149 -167 -207 -255 -294
-441 -391 -1126 -243 -1719 31 -123 140 -441 151 -441 14 0 246 357 296 455
197 384 277 740 277 1235 0 269 -5 322 -62 660 -27 162 -28 169 -19 405 14
390 -9 966 -64 1545 -44 475 -273 2333 -278 2258z"/>
<path d="M6072 15720 c242 -349 1287 -1878 1435 -2100 437 -655 745 -1174 998
-1680 l88 -175 -32 -125 c-50 -199 -64 -328 -58 -530 3 -100 12 -216 22 -270
60 -331 211 -701 408 -998 107 -162 185 -259 322 -401 106 -110 394 -365 402
-357 12 12 34 327 35 496 1 438 -79 789 -278 1225 -144 314 -301 555 -588 900
-83 99 -133 171 -173 245 -396 746 -750 1298 -1422 2219 -288 394 -1171 1584
-1189 1601 -8 8 5 -14 30 -50z"/>
<path d="M685 15229 c495 -270 893 -508 1810 -1081 516 -322 845 -519 1152
-690 209 -116 229 -130 368 -253 263 -232 445 -363 690 -498 330 -180 649
-291 982 -342 74 -11 436 -45 479 -45 11 0 -187 282 -252 360 -346 413 -832
693 -1326 766 -140 20 -397 15 -539 -11 l-96 -18 -109 58 c-366 196 -626 344
-1264 720 -601 354 -909 531 -1225 703 -234 126 -777 402 -792 402 -5 0 51
-32 122 -71z"/>
<path d="M7652 14700 c131 -213 1285 -2123 1395 -2310 481 -817 815 -1467
1095 -2134 l25 -60 -43 -131 c-177 -540 -135 -1077 131 -1693 123 -285 285
-537 501 -782 103 -117 351 -367 357 -360 5 6 52 298 69 430 7 52 12 199 12
325 0 244 -14 381 -59 597 -12 62 -22 114 -21 115 1 2 45 -77 98 -175 53 -97
138 -251 190 -342 l93 -165 -12 -65 c-37 -205 -40 -477 -8 -704 14 -103 50
-284 56 -291 12 -11 1057 25 1243 43 l69 7 -68 100 c-90 133 -128 179 -261
315 l-112 115 -51 128 c-28 70 -58 141 -67 158 -8 17 -14 32 -12 34 2 2 50
-40 108 -92 108 -98 292 -239 463 -356 74 -51 97 -63 97 -50 1 40 22 -22 95
-281 l16 -59 81 6 c45 4 82 8 84 10 6 6 -147 490 -222 700 -42 117 -104 299
-139 404 -40 120 -90 248 -135 340 -40 82 -114 243 -165 358 -51 116 -125 279
-164 364 -39 85 -70 156 -68 157 1 2 64 -37 140 -87 75 -49 140 -89 143 -89 8
0 -3 224 -17 340 -55 459 -276 914 -601 1239 -145 145 -298 251 -468 325 -36
16 -70 33 -77 40 -6 6 -145 272 -309 591 -272 531 -341 660 -301 565 14 -35
277 -598 440 -945 47 -99 84 -181 83 -182 -1 -1 -37 8 -80 21 l-77 22 -146
220 c-193 292 -382 591 -663 1049 -462 755 -684 1101 -960 1495 -130 185 -339
470 -345 470 -3 0 78 -125 179 -277 312 -474 497 -777 936 -1538 363 -629 545
-932 777 -1293 95 -147 110 -177 163 -325 153 -430 295 -705 520 -1005 95
-128 302 -349 404 -432 30 -25 59 -56 65 -70 5 -14 46 -108 90 -209 90 -205
95 -197 -45 -78 -150 128 -341 232 -559 306 l-119 40 -86 138 c-48 76 -124
217 -169 313 -261 552 -689 1332 -1374 2510 -419 721 -654 1114 -599 1005 5
-11 245 -461 532 -1000 287 -539 543 -1018 567 -1065 69 -129 38 -85 -77 110
-189 320 -418 679 -644 1010 -134 196 -336 480 -342 480 -2 0 31 -53 73 -117
344 -529 630 -1013 1078 -1828 288 -523 416 -752 582 -1035 171 -293 393 -815
604 -1421 l33 -96 -51 -129 c-28 -71 -56 -147 -63 -169 -7 -22 -15 -43 -19
-47 -9 -9 -155 250 -796 1407 -214 387 -386 684 -634 1100 -46 77 -148 265
-227 418 -276 533 -566 1025 -1014 1722 -362 562 -1204 1842 -1223 1860 -6 6
-4 -1 5 -15z"/>
<path d="M13791 14389 c0 -26 12 -426 29 -890 39 -1095 50 -1503 50 -1834 0
-497 -27 -1027 -74 -1450 l-24 -210 -144 -145 c-170 -172 -252 -284 -348 -475
-227 -453 -303 -1072 -195 -1599 25 -123 107 -426 115 -425 3 0 55 63 115 140
380 481 549 888 621 1494 23 196 21 505 -6 760 -28 259 -28 268 -7 490 31 321
38 463 44 905 9 645 -21 1267 -128 2700 -37 503 -46 599 -48 539z"/>
<path d="M1720 13907 c0 -3 60 -38 133 -78 401 -221 998 -579 1512 -907 1045
-668 1334 -847 1777 -1097 133 -75 174 -105 270 -193 334 -308 608 -504 946
-676 287 -145 576 -242 886 -296 114 -19 525 -64 532 -58 5 6 -153 252 -228
353 -93 127 -315 349 -441 444 -333 248 -692 405 -1047 457 -142 20 -412 14
-567 -14 l-102 -18 -118 64 c-358 195 -823 468 -1747 1026 -353 213 -723 427
-1041 601 -186 103 -765 399 -765 392z"/>
<path d="M9240 13560 c6 -11 13 -20 16 -20 2 0 0 9 -6 20 -6 11 -13 20 -16 20
-2 0 0 -9 6 -20z"/>
<path d="M14477 12810 c-4 -157 -12 -575 -17 -930 -29 -1878 -76 -2544 -252
-3548 l-11 -63 -101 -83 c-251 -207 -427 -434 -566 -729 -54 -116 -140 -356
-140 -393 0 -22 3 -24 38 -19 20 3 125 14 232 25 193 21 551 65 601 76 23 4
28 12 38 62 38 200 45 306 46 722 1 401 2 420 28 580 70 431 115 915 137 1490
14 375 12 1327 -5 2210 -19 958 -18 946 -28 600z"/>
<path d="M2905 12469 c605 -344 1083 -640 1940 -1204 860 -565 1072 -701 1510
-961 160 -95 311 -190 337 -211 25 -21 115 -103 200 -182 594 -559 1252 -900
1948 -1010 133 -21 481 -63 486 -58 6 6 -181 307 -250 400 -232 317 -528 568
-896 760 -440 229 -859 300 -1314 221 l-89 -15 -111 62 c-386 216 -773 450
-1619 976 -932 580 -1313 802 -1974 1147 -251 131 -324 163 -168 75z"/>
<path d="M15040 11958 c0 -167 -3 -400 -7 -518 l-6 -215 176 -32 c1480 -272
2687 -709 3377 -1224 466 -348 697 -749 650 -1130 -90 -745 -1121 -1424 -2890
-1904 -979 -265 -2211 -456 -3485 -539 -546 -36 -738 -41 -1555 -41 -841 0
-1002 5 -1610 46 -2053 138 -3836 533 -5005 1109 -417 205 -681 385 -926 629
-195 196 -292 348 -356 558 -23 77 -26 106 -27 233 -1 112 3 161 18 214 57
213 172 395 375 596 97 96 276 242 381 311 14 9 23 19 20 21 -23 20 -812 518
-821 518 -43 0 -480 -400 -639 -585 -292 -340 -477 -697 -551 -1061 -31 -153
-37 -479 -15 -773 105 -1364 507 -2757 1197 -4151 126 -256 191 -370 313 -549
401 -595 982 -1189 1641 -1679 1007 -748 2248 -1287 3585 -1556 739 -149 1400
-218 2225 -232 1191 -21 2353 124 3380 421 1757 508 3244 1488 4229 2785 224
294 337 480 533 875 738 1489 1154 2953 1225 4312 14 266 5 411 -38 601 -163
729 -773 1414 -1784 2006 -201 117 -635 336 -862 435 -585 253 -1275 481
-1980 655 -260 64 -721 166 -752 166 -14 0 -16 -32 -16 -302z"/>
<path d="M3920 11100 c8 -6 168 -102 355 -213 581 -348 1083 -673 1795 -1162
714 -490 1499 -1005 1837 -1204 53 -31 132 -101 290 -254 293 -284 433 -401
678 -564 494 -330 969 -520 1510 -608 189 -30 419 -63 423 -60 6 5 -157 289
-225 393 -255 387 -602 697 -1033 920 -230 119 -445 194 -690 239 -135 24
-492 25 -647 0 l-113 -18 -172 102 c-404 239 -821 501 -1623 1019 -834 539
-1158 738 -1695 1042 -312 177 -763 417 -690 368z"/>
<path d="M4925 9673 c6 -5 80 -52 165 -103 635 -384 1203 -762 2150 -1435 737
-523 1149 -809 1405 -978 l100 -66 150 -14 c83 -8 151 -13 153 -12 2 2 -77 54
-175 116 -264 168 -912 597 -1478 979 -777 524 -1184 784 -1745 1112 -282 165
-746 422 -725 401z"/>
<path d="M5830 8246 c0 -3 9 -10 20 -16 11 -6 20 -8 20 -6 0 3 -9 10 -20 16
-11 6 -20 8 -20 6z"/>
<path d="M5885 8213 c6 -5 100 -65 210 -134 233 -144 695 -450 933 -616 157
-110 170 -117 250 -135 47 -10 86 -17 88 -15 6 6 -460 306 -736 474 -319 194
-775 455 -745 426z"/>
</g>
</svg>
